<svg id="Group_55" data-name="Group 55" xmlns="http://www.w3.org/2000/svg" width="54.301" height="29.821" viewBox="0 0 54.301 29.821">
  <path id="Path_59" data-name="Path 59" d="M101.485,1086.112a4.351,4.351,0,0,1,.425-3.448l-.435-1.458c-.707.2-1.413.4-2.109.612a129.856,129.856,0,0,0-14.837,5.358l2.186,7.331a129.759,129.759,0,0,0,15.349-3.641c.7-.208,1.4-.424,2.1-.643l-.435-1.458A4.351,4.351,0,0,1,101.485,1086.112Z" transform="translate(-73.697 -1065.649)" fill="#ffffff"/>
  <path id="Path_60" data-name="Path 60" d="M62.61,1117.854l1.956,6.691,2.345-.645-2.024-6.79Z" transform="translate(-55.947 -1094.724)" fill="#ffffff"/>
  <path id="Path_61" data-name="Path 61" d="M186.662,1088.625a2.294,2.294,0,0,0-1.473-.061,2.472,2.472,0,0,0-1.008.608l-.139.178a2.29,2.29,0,0,0-.39,2.056,2.255,2.255,0,0,0,1.452,1.507,2.378,2.378,0,0,0,1.573-.036,2.242,2.242,0,0,0,1.079-.815,2.267,2.267,0,0,0,.275-1.961A2.441,2.441,0,0,0,186.662,1088.625Z" transform="translate(-153.892 -1071.532)" fill="#ffffff"/>
  <path id="Path_62" data-name="Path 62" d="M224.9,1061.589c-.07-.235-1.048-.907-4.5-.907a76.155,76.155,0,0,0-16.2,2.39l.4,1.35a4.326,4.326,0,0,1,1.884,5.663,2.526,2.526,0,0,1-.109.231l-.012.02.4,1.348a85.262,85.262,0,0,0,13.53-6.045C224.335,1063.266,224.99,1061.885,224.9,1061.589Z" transform="translate(-170.608 -1049.028)" fill="#ffffff"/>
  <g id="Group_54" data-name="Group 54" transform="translate(0 0)">
    <path id="Path_63" data-name="Path 63" d="M33.78,1013.875a31,31,0,0,1,6.253-3.016c2.809-1.095,5.462-2.13,7.339-4.422,2.323-2.838,2.065-4.852,1.431-6.392a5.047,5.047,0,0,1-.895,2.322c-1.314,2.13-4.728,3.091-9.4,4.929-7.1,2.8-10.383,4.371-10.889,9.34a6.945,6.945,0,0,0,3.127,6.682A7.923,7.923,0,0,1,33.78,1013.875Z" transform="translate(-27.578 -999.925)" fill="#ffffff"/>
    <path id="Path_64" data-name="Path 64" d="M68.8,1002.544a8.993,8.993,0,0,0-1.825-3.133c.773,1.712,1.3,4.1-1.429,7.438-2,2.447-4.746,3.516-7.651,4.649a30.4,30.4,0,0,0-6.106,2.938,7.155,7.155,0,0,0-2.764,8.489c.042-.144.088-.288.142-.432a11.364,11.364,0,0,1,6.268-6.144c4.925-1.772,8.125-2.467,10.755-5.543C68.541,1008.052,69.546,1005.385,68.8,1002.544Z" transform="translate(-44.598 -999.411)" fill="#ffffff"/>
  </g>
</svg>
