<svg id="Group_52" data-name="Group 52" xmlns="http://www.w3.org/2000/svg" width="47.454" height="24.648" viewBox="0 0 47.454 24.648">
  <path id="Path_54" data-name="Path 54" d="M89.592,1712.988l2.369-.682v-17.964l-7.182,2.069Z" transform="translate(-77.062 -1690.985)" fill="#fff"/>
  <path id="Path_55" data-name="Path 55" d="M39.615,1729.1l8.274,11.324,2.619-1.9-4.155-14.309Z" transform="translate(-39.615 -1715.778)" fill="#fff"/>
  <path id="Path_56" data-name="Path 56" d="M137.242,1695.419h14.025v-20.8H137.242Zm6.862-2.461a1.334,1.334,0,0,1,.022-2.662,1.332,1.332,0,0,1-.022,2.662Zm-2.716-14.879a5.677,5.677,0,0,1,3.058-.852c2.459,0,3.571,1.512,3.571,3.13,0,1.448-.812,2.492-1.839,3.706a4.241,4.241,0,0,0-1.219,3.152s.037.4.043.532a.832.832,0,0,1-.836.843.93.93,0,0,1-.853-.843c-.019-.137-.043-.554-.043-.554a4.9,4.9,0,0,1,1.326-3.684,4.672,4.672,0,0,0,1.5-2.918c0-1.086-.684-1.81-2.031-1.831a4.085,4.085,0,0,0-2.053.6.665.665,0,0,1-.987-.349A.828.828,0,0,1,141.388,1678.08Z" transform="translate(-120.56 -1674.616)" fill="#fff"/>
  <path id="Path_57" data-name="Path 57" d="M255.591,1723.861l-4.61,14.245,2.256,1.963,9.082-10.354Z" transform="translate(-214.865 -1715.481)" fill="#fff"/>
  <path id="Path_58" data-name="Path 58" d="M229.75,1695.248v17.45l2.078.667,5.116-15.808Z" transform="translate(-197.262 -1691.737)" fill="#fff"/>
</svg>
