<svg xmlns="http://www.w3.org/2000/svg" width="39.342" height="32.315" viewBox="0 0 39.342 32.315">
  <g id="Group_56" data-name="Group 56" transform="translate(-154.699 -347.897)">
    <path id="Path_67" data-name="Path 67" d="M232.927,351.008a23.784,23.784,0,0,1,4.835.452,4.323,4.323,0,0,1,3.161-1.283,10.165,10.165,0,0,0-2.347-1.348c-3.217-1.327-7.127-1.237-11.62.268-4.064,1.362-5.772,3.722-6.485,5.339a12.665,12.665,0,0,1,2.922-1.54A24.418,24.418,0,0,1,232.927,351.008Z" transform="translate(-56.37)" fill="#fff"/>
    <path id="Path_68" data-name="Path 68" d="M195.767,468.9a4.976,4.976,0,0,0,2.205-4.534,5.7,5.7,0,0,0-1.406-3.792A6.638,6.638,0,0,1,193,463.852c0,.063.006.133.007.212,0,0,0,.005,0,.008h0a3.575,3.575,0,0,1-1.259,2.907l-.761.528c-1.808,1.254-2.614,2.325-2.614,3.47a3.338,3.338,0,0,0,1.205,2.478c.322-1.679,1.9-2.928,4.245-3.617A8.156,8.156,0,0,0,195.767,468.9Z" transform="translate(-28.859 -96.572)" fill="#fff"/>
    <path id="Path_69" data-name="Path 69" d="M212.865,424.267a9.1,9.1,0,0,1,.176,1.819,7.609,7.609,0,0,1-.269,2.008,6.821,6.821,0,0,1,2.314,5.154,6.18,6.18,0,0,1-2.72,5.486,11.433,11.433,0,0,1-2.526,1.192c-1.114.409-3.4,1.27-3.15,3.551a3.1,3.1,0,0,0,2.074,2.186c-.252-1.216-.264-2.073,1.845-3.277a18.43,18.43,0,0,1,4.045-1.436,8.367,8.367,0,0,0,6.936-8.209A8.732,8.732,0,0,0,212.865,424.267Z" transform="translate(-44.543 -65.453)" fill="#fff"/>
    <path id="Path_70" data-name="Path 70" d="M250.731,397.574c0-6.653-5.419-11.865-12.336-11.865a11.3,11.3,0,0,0-4.066.784c-.561.246-1.1.513-1.622.8a5.847,5.847,0,0,1,2.1,2.68l.119,0c5.737,0,10.405,4.362,10.405,9.723,0,.2-.009.391-.021.585h.018c-.322,3.478.464,5.944,2.276,7.131a4.945,4.945,0,0,0,2.686.77h.016c-1.618-1.99-.9-4.614-.264-6.967A14.636,14.636,0,0,0,250.731,397.574Z" transform="translate(-66.857 -32.407)" fill="#fff"/>
    <path id="Path_71" data-name="Path 71" d="M308.335,382.837a16.581,16.581,0,0,0-8.062-3.87c-.188-.041-.358-.079-.509-.114a21.936,21.936,0,0,0-4.977-.518q-1.081,0-2.138.1a13.8,13.8,0,0,1,6.921,3.581,12.923,12.923,0,0,1,3.1,4.632c4.555.885,7.767,4.7,9.16,6.675a8.706,8.706,0,0,0,.434-2.474C312.346,387.96,311.024,385.266,308.335,382.837Z" transform="translate(-118.229 -26.087)" fill="#fff"/>
    <path id="Path_72" data-name="Path 72" d="M175.868,500.832s-2.984.751-4.84-.062a12.659,12.659,0,0,0,2.02,2.426C173.521,502.008,175.868,500.832,175.868,500.832Z" transform="translate(-13.995 -131.02)" fill="#fff"/>
    <path id="Path_73" data-name="Path 73" d="M162.334,414.724a.968.968,0,0,0,.382-.741c0-.006,0-.011,0-.017a1.917,1.917,0,0,0-.053-.491l-.137-.568.621-.167a5.673,5.673,0,0,0,3.921-5.644c0-2.321-.865-4.074-2.447-4.987a14.06,14.06,0,0,0-3.283,3.037l-.016.019A18.621,18.621,0,0,1,156.5,409.3c-1.27.6-1.673.915-1.8,1.3h3.671l-1.557,1.1c-.673.475-1.4,1.22-1.038,2.066.016.038.035.074.053.111l.011.019,0,.01c.541,1.1,1.675,1.666,3.378,1.666A5.035,5.035,0,0,0,162.334,414.724Zm1.927-7.878s-2.984,2-2.99,2l-.093.08-.437-1.76Z" transform="translate(0 -46.463)" fill="#fff"/>
  </g>
</svg>
