<svg id="Group_51" data-name="Group 51" xmlns="http://www.w3.org/2000/svg" width="48.756" height="28.163" viewBox="0 0 48.756 28.163">
  <path id="Path_52" data-name="Path 52" d="M95.27,787.4c10.031,0,15.44,2.24,16.281,2.618.114-.033.416-.28.618-.939.193-.627.072-1.006-.07-1.064l-.045-.02c-5.56-2.671-14.957-2.806-16.785-2.806s-11.225.135-16.786,2.806l-.045.02c-.142.059-.263.437-.069,1.064.2.659.5.906.618.939.84-.378,6.25-2.617,16.281-2.617Z" transform="translate(-70.892 -761.857)" fill="#ffffff"/>
  <path id="Path_53" data-name="Path 53" d="M59.292,669.711c2.638,0,11.63.212,17.382,2.909a74.779,74.779,0,0,1,7-16.864l-.075-.01c-4.269-.6-5.824,3.584-5.824,3.584a7.171,7.171,0,0,0-2.368-.014,3.182,3.182,0,0,0-1.971,1.348h.425a3.136,3.136,0,0,1,3.347,2.871c0,1.586-1.283,2.871-3.347,2.871a4.1,4.1,0,0,1-3.223-1.309A1.708,1.708,0,0,1,70.1,663.9a1.6,1.6,0,0,1,2.378-1.391l.036.021a3.458,3.458,0,0,0-1.365-1.6l.025-.022a2.93,2.93,0,0,0,.779-1.419,2.2,2.2,0,1,0-4.206-.984,2.928,2.928,0,0,0,.069,1.62c0,.01.009.02.012.03a3.671,3.671,0,0,0-1.915.768s.332.051.441.071a1.557,1.557,0,0,1,1.258,1.9c-.505,1.705-2.254,1.756-3.968,1.392a2.9,2.9,0,1,1,1.2-5.653,2.968,2.968,0,0,1,1.081.428l.078.049a3.123,3.123,0,0,0-2.542-2.605,3.078,3.078,0,0,0-.747-.073h-.031a11.283,11.283,0,0,0-3.39-8.355,11.283,11.283,0,0,0-3.389,8.355h-.031a3.078,3.078,0,0,0-.747.073,3.122,3.122,0,0,0-2.542,2.605l.078-.049a2.968,2.968,0,0,1,1.081-.428,2.9,2.9,0,1,1,1.2,5.653c-1.714.364-3.463.313-3.968-1.392a1.557,1.557,0,0,1,1.258-1.9c.11-.02.441-.071.441-.071a3.671,3.671,0,0,0-1.915-.768c0-.01.009-.02.012-.03a2.928,2.928,0,0,0,.069-1.62,2.2,2.2,0,1,0-4.205.984,2.928,2.928,0,0,0,.779,1.419l.025.022a3.458,3.458,0,0,0-1.365,1.6l.036-.021a1.6,1.6,0,0,1,2.378,1.391,1.707,1.707,0,0,1-.537,1.194,4.1,4.1,0,0,1-3.223,1.309c-2.063,0-3.347-1.285-3.347-2.871a3.137,3.137,0,0,1,3.347-2.871h.425a3.182,3.182,0,0,0-1.971-1.348,7.171,7.171,0,0,0-2.368.014s-1.555-4.18-5.824-3.584l-.075.01a74.779,74.779,0,0,1,7,16.864C47.663,669.923,56.655,669.711,59.292,669.711Z" transform="translate(-34.915 -648.08)" fill="#ffffff"/>
</svg>
