<svg xmlns="http://www.w3.org/2000/svg" width="48.029" height="25.392" viewBox="0 0 48.029 25.392">
  <path id="Path_65" data-name="Path 65" d="M91.385,830.859c-3.381,0-4.923.73-5.552,1.178H61.767c-.631-.509-2.181-1.337-5.585-1.337-3.9,0-6,2.056-6.359,4.094-.318,1.82.694,4.445,4.592,5.85,1,.359,1.96.694,2.892,1.018,3.481,1.21,6.5,2.261,7.793,3.41l.121.113a2.137,2.137,0,0,1,.632,2.25c-.294.72-1.138,1.116-2.376,1.116a4.745,4.745,0,0,1-.818-.066,1.819,1.819,0,1,0-3.285-1.077c0,.037,0,.072.005.109a.86.86,0,0,0,.017.23c.279,1.23,1.5,2.545,4.081,2.545,1.962,0,3.415-.8,3.987-2.2a3.239,3.239,0,0,0,.218-.879,17.69,17.69,0,0,0,2.865,1.721v2.551a35.611,35.611,0,0,0-4.255,3.067l-1.852,1.539H83.674l-1.99-1.556a38.514,38.514,0,0,0-4.5-3.061v-2.54a17.348,17.348,0,0,0,2.7-1.6,3.241,3.241,0,0,0,.222.917c.571,1.4,2.024,2.2,3.987,2.2,2.583,0,3.8-1.314,4.081-2.545a.86.86,0,0,0,.017-.23c0-.036.005-.072.005-.109a1.821,1.821,0,1,0-3.285,1.077,4.744,4.744,0,0,1-.819.067c-1.238,0-2.081-.4-2.376-1.116a2.138,2.138,0,0,1,.633-2.25c1.214-1.194,4.319-2.273,7.913-3.522.932-.324,1.9-.659,2.892-1.018,3.9-1.4,4.91-4.029,4.592-5.849C97.388,832.916,95.284,830.859,91.385,830.859Zm-36.379,8.148c-2.372-.855-3.734-2.391-3.468-3.913.231-1.321,1.756-2.654,4.644-2.654,3.258,0,3.626,1.447,3.665,1.7a19.842,19.842,0,0,0,2.336,7.439c-1.267-.5-2.717-1.007-4.3-1.559C56.952,839.7,55.993,839.362,55.006,839.007Zm37.556.159c-.987.356-1.946.689-2.874,1.011-1.546.537-2.962,1.031-4.206,1.52a19.962,19.962,0,0,0,2.33-6.907v0c.02-.15.039-.3.055-.448.139-.563.76-1.739,3.518-1.739,2.888,0,4.414,1.333,4.645,2.654C96.3,836.775,94.934,838.311,92.562,839.166Z" transform="translate(-49.769 -830.7)" fill="#ffffff"/>
</svg>
