<svg xmlns="http://www.w3.org/2000/svg" xmlns:xlink="http://www.w3.org/1999/xlink" width="408.339" height="279.85" viewBox="0 0 408.339 279.85">
  <defs>
    <radialGradient id="radial-gradient" cx="0.5" cy="0.5" r="0.5" gradientUnits="objectBoundingBox">
      <stop offset="0" stop-color="#7ff"/>
      <stop offset="0.665" stop-color="#20dfe6"/>
      <stop offset="1" stop-color="#1ddee5" stop-opacity="0"/>
    </radialGradient>
    <filter id="Ellipse_10" x="176.73" y="152.563" width="54.322" height="48.917" filterUnits="userSpaceOnUse">
      <feOffset input="SourceAlpha"/>
      <feGaussianBlur stdDeviation="5" result="blur"/>
      <feFlood flood-color="#4ff"/>
      <feComposite operator="in" in2="blur"/>
      <feComposite in="SourceGraphic"/>
    </filter>
    <radialGradient id="radial-gradient-2" cx="0.5" cy="0.5" r="0.5" gradientUnits="objectBoundingBox">
      <stop offset="0" stop-color="#7ff" stop-opacity="0"/>
      <stop offset="0.632" stop-color="#63f8f9" stop-opacity="0"/>
      <stop offset="1" stop-color="#41f8ff" stop-opacity="0.29"/>
    </radialGradient>
    <filter id="Ellipse_12" x="76.74" y="99.865" width="254.301" height="154.311" filterUnits="userSpaceOnUse">
      <feOffset input="SourceAlpha"/>
      <feGaussianBlur stdDeviation="5" result="blur-2"/>
      <feFlood flood-color="#4ff"/>
      <feComposite operator="in" in2="blur-2"/>
      <feComposite in="SourceGraphic"/>
    </filter>
    <radialGradient id="radial-gradient-3" cx="0.5" cy="0.5" r="0.5" gradientUnits="objectBoundingBox">
      <stop offset="0" stop-color="#101f39"/>
      <stop offset="1" stop-opacity="0"/>
    </radialGradient>
    <radialGradient id="radial-gradient-4" cx="0.5" cy="0.5" r="0.5" gradientUnits="objectBoundingBox">
      <stop offset="0" stop-color="#24ffff" stop-opacity="0.91"/>
      <stop offset="0.736" stop-color="#24ffff" stop-opacity="0.051"/>
      <stop offset="1" stop-color="#24ffff" stop-opacity="0"/>
    </radialGradient>
    <filter id="Path_46" x="146.185" y="0" width="115.969" height="115.969" filterUnits="userSpaceOnUse">
      <feOffset input="SourceAlpha"/>
      <feGaussianBlur stdDeviation="3" result="blur-3"/>
      <feFlood flood-color="#7affff"/>
      <feComposite operator="in" in2="blur-3"/>
      <feComposite in="SourceGraphic"/>
    </filter>
    <filter id="Path_46-2" x="146.185" y="0" width="115.969" height="115.969" filterUnits="userSpaceOnUse">
      <feOffset dy="3" input="SourceAlpha"/>
      <feGaussianBlur stdDeviation="3" result="blur-4"/>
      <feFlood flood-opacity="0.161" result="color"/>
      <feComposite operator="out" in="SourceGraphic" in2="blur-4"/>
      <feComposite operator="in" in="color"/>
      <feComposite operator="in" in2="SourceGraphic"/>
    </filter>
    <linearGradient id="linear-gradient" x1="0.5" x2="0.5" y2="1" gradientUnits="objectBoundingBox">
      <stop offset="0" stop-color="#00d2d9" stop-opacity="0"/>
      <stop offset="0.335" stop-color="#009ade" stop-opacity="0"/>
      <stop offset="0.468" stop-color="#00f6ff" stop-opacity="0.349"/>
      <stop offset="0.674" stop-color="#7cf5f9"/>
      <stop offset="1" stop-color="#f3ffff"/>
    </linearGradient>
    <filter id="Subtraction_17" x="112.45" y="12.919" width="183.44" height="181.488" filterUnits="userSpaceOnUse">
      <feOffset input="SourceAlpha"/>
      <feGaussianBlur stdDeviation="7.5" result="blur-5"/>
      <feFlood flood-color="#7affff"/>
      <feComposite operator="in" in2="blur-5"/>
      <feComposite in="SourceGraphic"/>
    </filter>
    <filter id="Ellipse_13" x="0" y="74.192" width="408.339" height="205.657" filterUnits="userSpaceOnUse">
      <feOffset input="SourceAlpha"/>
      <feGaussianBlur stdDeviation="5" result="blur-6"/>
      <feFlood flood-color="#4ff"/>
      <feComposite operator="in" in2="blur-6"/>
      <feComposite in="SourceGraphic"/>
    </filter>
  </defs>
  <g id="shopPageM" transform="translate(-14.954 -358.664)">
    <g id="MapMarker" transform="translate(29.954 367.664)" style="isolation: isolate">
      <g transform="matrix(1, 0, 0, 1, -15, -9)" filter="url(#Ellipse_10)" style="mix-blend-mode: color-dodge;isolation: isolate">
        <ellipse id="Ellipse_10-2" data-name="Ellipse 10" cx="12.161" cy="9.458" rx="12.161" ry="9.458" transform="translate(191.73 167.56)" fill="url(#radial-gradient)"/>
      </g>
      <g transform="matrix(1, 0, 0, 1, -15, -9)" filter="url(#Ellipse_12)" style="mix-blend-mode: color-dodge;isolation: isolate">
        <g id="Ellipse_12-2" data-name="Ellipse 12" transform="translate(91.74 114.87)" stroke="#3ce9ee" stroke-width="1" fill="url(#radial-gradient-2)">
          <ellipse cx="112.15" cy="62.156" rx="112.15" ry="62.156" stroke="none"/>
          <ellipse cx="112.15" cy="62.156" rx="111.65" ry="61.656" fill="none"/>
        </g>
      </g>
      <circle id="Ellipse_11" data-name="Ellipse 11" cx="48.644" cy="48.644" r="48.644" transform="translate(140.247 3.173)" fill="url(#radial-gradient-3)"/>
      <g data-type="innerShadowGroup">
        <g transform="matrix(1, 0, 0, 1, -15, -9)" filter="url(#Path_46)">
          <path id="Path_46-3" data-name="Path 46" d="M48.984,0A48.988,48.988,0,1,1,0,48.984,48.984,48.984,0,0,1,48.984,0Z" transform="translate(155.19 9)" fill="url(#radial-gradient-4)"/>
        </g>
        <g transform="matrix(1, 0, 0, 1, -15, -9)" filter="url(#Path_46-2)">
          <path id="Path_46-4" data-name="Path 46" d="M48.984,0A48.988,48.988,0,1,1,0,48.984,48.984,48.984,0,0,1,48.984,0Z" transform="translate(155.19 9)" fill="#fff"/>
        </g>
      </g>
      <g transform="matrix(1, 0, 0, 1, -15, -9)" filter="url(#Subtraction_17)">
        <path id="Subtraction_17-2" data-name="Subtraction 17" d="M69.22,136.488,0,0H138.44Z" transform="translate(134.95 35.42)" fill="url(#linear-gradient)"/>
      </g>
      <g transform="matrix(1, 0, 0, 1, -15, -9)" filter="url(#Ellipse_13)" style="mix-blend-mode: color-dodge;isolation: isolate">
        <g id="Ellipse_13-2" data-name="Ellipse 13" transform="translate(15 89.19)" stroke="#3ce9ee" stroke-width="1" fill="url(#radial-gradient-2)">
          <ellipse cx="189.169" cy="87.829" rx="189.169" ry="87.829" stroke="none"/>
          <ellipse cx="189.169" cy="87.829" rx="188.669" ry="87.329" fill="none"/>
        </g>
      </g>
    </g>
    <path id="Path_75" data-name="Path 75" d="M73.358,1403.536l9.391-18.211,18.816.011Zm20.391-29.359,8.924,8.86-17.836-.011Zm-2.791-.469-8.909,8.846-8.9-8.835Zm-11.7,9.317H61.534l8.831-8.831Zm-11.67-9.306-8.83,8.829-8.84-8.84Zm-20.447.464,8.844,8.844-17.7.011Zm-7.756,11.153,18.671-.011,9.318,18.2Zm21.254-.012H80.161l-9.8,19Z" transform="translate(148.645 -955.803)" fill="#fff"/>
  </g>
</svg>
