<svg xmlns="http://www.w3.org/2000/svg" xmlns:xlink="http://www.w3.org/1999/xlink" width="264.151" height="37.216" viewBox="0 0 264.151 37.216">
  <defs>
    <filter id="Long_Button">
      <feOffset input="SourceAlpha"/>
      <feGaussianBlur stdDeviation="5" result="blur"/>
      <feFlood flood-color="#30a1cf" flood-opacity="0.502" result="color"/>
      <feComposite operator="out" in="SourceGraphic" in2="blur"/>
      <feComposite operator="in" in="color"/>
      <feComposite operator="in" in2="SourceGraphic"/>
    </filter>
  </defs>
  <g data-type="innerShadowGroup">
    <g id="Long_Button-2" data-name="Long Button" transform="translate(0 0)" fill="rgba(14,41,65,0.5)">
      <path d="M 263.6509094238281 36.71586608886719 L 0.49997279047966 36.71586608886719 L 0.49997279047966 0.49996417760849 L 244.3002777099609 0.4998644590377808 L 263.6509094238281 19.06722450256348 L 263.6509094238281 36.71586608886719 Z" stroke="none"/>
      <path d="M 263.1509094238281 36.21586608886719 L 263.1509094238281 19.28045082092285 L 244.0991516113281 0.9998645186424255 L 0.9999727606773376 0.9999639987945557 L 0.9999727606773376 36.21586608886719 L 263.1509094238281 36.21586608886719 M 264.1509094238281 37.21586608886719 L -2.721354212553706e-05 37.21586608886719 L -2.721354212553706e-05 -3.562011625035666e-05 L 244.5013427734375 -0.0001356201100861654 L 264.1509094238281 18.85406494140625 L 264.1509094238281 37.21586608886719 Z" stroke="none"/>
    </g>
    <g transform="matrix(1, 0, 0, 1, 0, 0)" filter="url(#Long_Button)">
      <g id="Long_Button-3" data-name="Long Button" transform="translate(0 0)" fill="#fff">
        <path d="M 263.6509094238281 36.71586608886719 L 0.49997279047966 36.71586608886719 L 0.49997279047966 0.49996417760849 L 244.3002777099609 0.4998644590377808 L 263.6509094238281 19.06722450256348 L 263.6509094238281 36.71586608886719 Z" stroke="none"/>
        <path d="M 263.1509094238281 36.21586608886719 L 263.1509094238281 19.28045082092285 L 244.0991516113281 0.9998645186424255 L 0.9999727606773376 0.9999639987945557 L 0.9999727606773376 36.21586608886719 L 263.1509094238281 36.21586608886719 M 264.1509094238281 37.21586608886719 L -2.721354212553706e-05 37.21586608886719 L -2.721354212553706e-05 -3.562011625035666e-05 L 244.5013427734375 -0.0001356201100861654 L 264.1509094238281 18.85406494140625 L 264.1509094238281 37.21586608886719 Z" stroke="none"/>
      </g>
    </g>
    <g id="Long_Button-4" data-name="Long Button" transform="translate(0 0)" fill="none">
      <path d="M 263.6509094238281 36.71586608886719 L 0.49997279047966 36.71586608886719 L 0.49997279047966 0.49996417760849 L 244.3002777099609 0.4998644590377808 L 263.6509094238281 19.06722450256348 L 263.6509094238281 36.71586608886719 Z" stroke="none"/>
      <path d="M 263.1509094238281 36.21586608886719 L 263.1509094238281 19.28045082092285 L 244.0991516113281 0.9998645186424255 L 0.9999727606773376 0.9999639987945557 L 0.9999727606773376 36.21586608886719 L 263.1509094238281 36.21586608886719 M 264.1509094238281 37.21586608886719 L -2.721354212553706e-05 37.21586608886719 L -2.721354212553706e-05 -3.562011625035666e-05 L 244.5013427734375 -0.0001356201100861654 L 264.1509094238281 18.85406494140625 L 264.1509094238281 37.21586608886719 Z" stroke="none" fill="#30a1cf"/>
    </g>
  </g>
</svg>
