<svg id="Group_173" data-name="Group 173" xmlns="http://www.w3.org/2000/svg" width="21.996" height="28.353" viewBox="0 0 21.996 28.353">
  <path id="Path_453" data-name="Path 453" d="M15.766,2.289V0H7.119V2.225H0V4.451H22V2.289Z" fill="#fff"/>
  <path id="Path_454" data-name="Path 454" d="M11.912,69.242c0,1.29,2.33,3.686,3.622,3.686H27.1c1.259,0,3.561-2.3,3.561-3.56V51.441H11.927S11.912,64.862,11.912,69.242ZM17.224,57.39a.667.667,0,0,1,.944,0l3.116,3.116L24.4,57.39a.667.667,0,1,1,.944.944l-3.116,3.116,3.045,3.045a.667.667,0,1,1-.944.944l-3.044-3.045L18.24,65.438a.667.667,0,0,1-.944-.944l3.045-3.045-3.116-3.116A.667.667,0,0,1,17.224,57.39Z" transform="translate(-10.322 -44.575)" fill="#fff"/>
</svg>
