<svg xmlns="http://www.w3.org/2000/svg" xmlns:xlink="http://www.w3.org/1999/xlink" width="177.606" height="26" viewBox="0 0 177.606 26">
  <defs>
    <filter id="Ellipse_4">
      <feOffset input="SourceAlpha"/>
      <feGaussianBlur stdDeviation="5" result="blur"/>
      <feFlood flood-color="#30a1cf" flood-opacity="0.502" result="color"/>
      <feComposite operator="out" in="SourceGraphic" in2="blur"/>
      <feComposite operator="in" in="color"/>
      <feComposite operator="in" in2="SourceGraphic"/>
    </filter>
    <filter id="Subtraction_14">
      <feOffset input="SourceAlpha"/>
      <feGaussianBlur stdDeviation="5" result="blur-2"/>
      <feFlood flood-color="#30a1cf" flood-opacity="0.502" result="color-2"/>
      <feComposite operator="out" in="SourceGraphic" in2="blur-2"/>
      <feComposite operator="in" in="color-2"/>
      <feComposite operator="in" in2="SourceGraphic"/>
    </filter>
  </defs>
  <g id="Long_Button" data-name="Long Button" transform="translate(177.606 26) rotate(180)">
    <g id="Long_Button-2" data-name="Long Button" transform="translate(177.606 26) rotate(180)">
      <g data-type="innerShadowGroup">
        <circle id="Ellipse_4-2" data-name="Ellipse 4" cx="13" cy="13" r="13" fill="rgba(1,39,72,0.5)"/>
        <g transform="matrix(1, 0, 0, 1, 0, 0)" filter="url(#Ellipse_4)">
          <circle id="Ellipse_4-3" data-name="Ellipse 4" cx="13" cy="13" r="13" fill="#fff"/>
        </g>
        <g id="Ellipse_4-4" data-name="Ellipse 4" fill="none" stroke="#30a1cf" stroke-width="1">
          <circle cx="13" cy="13" r="13" stroke="none"/>
          <circle cx="13" cy="13" r="12.5" fill="none"/>
        </g>
      </g>
      <g data-type="innerShadowGroup">
        <g id="Subtraction_14-2" data-name="Subtraction 14" transform="translate(26.733 0)" fill="rgba(2,38,70,0.5)">
          <path d="M 136.5643005371094 25.5001106262207 L 2.681102991104126 25.5001106262207 C 6.834604263305664 22.64443969726562 9.349713325500488 18.00782585144043 9.349713325500488 13.02211093902588 C 9.349713325500488 8.003959655761719 6.810338497161865 3.351596593856812 2.616758584976196 0.4999905526638031 L 150.3733062744141 0.4999905526638031 L 150.3733367919922 11.62320613861084 L 136.5643005371094 25.5001106262207 Z" stroke="none"/>
          <path d="M 136.3564605712891 25.0001106262207 L 149.8733367919922 11.41680240631104 L 149.8733215332031 0.9999905228614807 L 4.115609645843506 0.9999905228614807 C 7.714430809020996 3.97195029258728 9.849713325500488 8.342574119567871 9.849713325500488 13.02211093902588 C 9.849713325500488 17.67237091064453 7.733675003051758 22.02783012390137 4.167842864990234 25.0001106262207 L 136.3564605712891 25.0001106262207 M 140.5325775146484 26.0001106262207 L 0.8953729867935181 26.0001106262207 C 5.801612854003906 23.38873100280762 8.849713325500488 18.41657066345215 8.849713325500488 13.02211093902588 C 8.849713325500488 7.590750694274902 5.769692897796631 2.600950479507446 0.8115929961204529 -9.455261533730663e-06 L 150.8733062744141 -9.455261533730663e-06 L 150.8733367919922 11.82959079742432 L 136.7730255126953 25.99919128417969 L 140.5325775146484 25.99810981750488 L 140.5325775146484 26.0001106262207 Z" stroke="none"/>
        </g>
        <g transform="matrix(1, 0, 0, 1, 0, 0)" filter="url(#Subtraction_14)">
          <g id="Subtraction_14-3" data-name="Subtraction 14" transform="translate(26.73 0)" fill="#fff">
            <path d="M 136.5643005371094 25.5001106262207 L 2.681102991104126 25.5001106262207 C 6.834604263305664 22.64443969726562 9.349713325500488 18.00782585144043 9.349713325500488 13.02211093902588 C 9.349713325500488 8.003959655761719 6.810338497161865 3.351596593856812 2.616758584976196 0.4999905526638031 L 150.3733062744141 0.4999905526638031 L 150.3733367919922 11.62320613861084 L 136.5643005371094 25.5001106262207 Z" stroke="none"/>
            <path d="M 136.3564605712891 25.0001106262207 L 149.8733367919922 11.41680240631104 L 149.8733215332031 0.9999905228614807 L 4.115609645843506 0.9999905228614807 C 7.714430809020996 3.97195029258728 9.849713325500488 8.342574119567871 9.849713325500488 13.02211093902588 C 9.849713325500488 17.67237091064453 7.733675003051758 22.02783012390137 4.167842864990234 25.0001106262207 L 136.3564605712891 25.0001106262207 M 140.5325775146484 26.0001106262207 L 0.8953729867935181 26.0001106262207 C 5.801612854003906 23.38873100280762 8.849713325500488 18.41657066345215 8.849713325500488 13.02211093902588 C 8.849713325500488 7.590750694274902 5.769692897796631 2.600950479507446 0.8115929961204529 -9.455261533730663e-06 L 150.8733062744141 -9.455261533730663e-06 L 150.8733367919922 11.82959079742432 L 136.7730255126953 25.99919128417969 L 140.5325775146484 25.99810981750488 L 140.5325775146484 26.0001106262207 Z" stroke="none"/>
          </g>
        </g>
        <g id="Subtraction_14-4" data-name="Subtraction 14" transform="translate(26.733 0)" fill="none">
          <path d="M 136.5643005371094 25.5001106262207 L 2.681102991104126 25.5001106262207 C 6.834604263305664 22.64443969726562 9.349713325500488 18.00782585144043 9.349713325500488 13.02211093902588 C 9.349713325500488 8.003959655761719 6.810338497161865 3.351596593856812 2.616758584976196 0.4999905526638031 L 150.3733062744141 0.4999905526638031 L 150.3733367919922 11.62320613861084 L 136.5643005371094 25.5001106262207 Z" stroke="none"/>
          <path d="M 136.3564605712891 25.0001106262207 L 149.8733367919922 11.41680240631104 L 149.8733215332031 0.9999905228614807 L 4.115609645843506 0.9999905228614807 C 7.714430809020996 3.97195029258728 9.849713325500488 8.342574119567871 9.849713325500488 13.02211093902588 C 9.849713325500488 17.67237091064453 7.733675003051758 22.02783012390137 4.167842864990234 25.0001106262207 L 136.3564605712891 25.0001106262207 M 140.5325775146484 26.0001106262207 L 0.8953729867935181 26.0001106262207 C 5.801612854003906 23.38873100280762 8.849713325500488 18.41657066345215 8.849713325500488 13.02211093902588 C 8.849713325500488 7.590750694274902 5.769692897796631 2.600950479507446 0.8115929961204529 -9.455261533730663e-06 L 150.8733062744141 -9.455261533730663e-06 L 150.8733367919922 11.82959079742432 L 136.7730255126953 25.99919128417969 L 140.5325775146484 25.99810981750488 L 140.5325775146484 26.0001106262207 Z" stroke="none" fill="#30a1cf"/>
        </g>
      </g>
    </g>
  </g>
</svg>
