<svg xmlns="http://www.w3.org/2000/svg" xmlns:xlink="http://www.w3.org/1999/xlink" width="177.606" height="26" viewBox="0 0 177.606 26">
  <defs>
    <filter id="Ellipse_4">
      <feOffset input="SourceAlpha"/>
      <feGaussianBlur stdDeviation="5" result="blur"/>
      <feFlood flood-color="#30a1cf" flood-opacity="0.502" result="color"/>
      <feComposite operator="out" in="SourceGraphic" in2="blur"/>
      <feComposite operator="in" in="color"/>
      <feComposite operator="in" in2="SourceGraphic"/>
    </filter>
    <filter id="Subtraction_14">
      <feOffset input="SourceAlpha"/>
      <feGaussianBlur stdDeviation="5" result="blur-2"/>
      <feFlood flood-color="#30a1cf" flood-opacity="0.502" result="color-2"/>
      <feComposite operator="out" in="SourceGraphic" in2="blur-2"/>
      <feComposite operator="in" in="color-2"/>
      <feComposite operator="in" in2="SourceGraphic"/>
    </filter>
  </defs>
  <g id="Long_Button" data-name="Long Button" transform="translate(0)">
    <g id="Long_Button-2" data-name="Long Button" transform="translate(177.606 26) rotate(180)">
      <g data-type="innerShadowGroup">
        <circle id="Ellipse_4-2" data-name="Ellipse 4" cx="13" cy="13" r="13" fill="rgba(1,39,72,0.5)"/>
        <g transform="matrix(-1, 0, 0, -1, 177.61, 26)" filter="url(#Ellipse_4)">
          <circle id="Ellipse_4-3" data-name="Ellipse 4" cx="13" cy="13" r="13" transform="translate(177.61 26) rotate(180)" fill="#fff"/>
        </g>
        <g id="Ellipse_4-4" data-name="Ellipse 4" fill="none" stroke="#30a1cf" stroke-width="1">
          <circle cx="13" cy="13" r="13" stroke="none"/>
          <circle cx="13" cy="13" r="12.5" fill="none"/>
        </g>
      </g>
      <g data-type="innerShadowGroup">
        <g id="Subtraction_14-2" data-name="Subtraction 14" transform="translate(26.733 0)" fill="rgba(2,38,70,0.5)">
          <path d="M 150.3733367919922 25.50019645690918 L 2.68110179901123 25.5001163482666 C 6.834603309631348 22.64444732666016 9.349713325500488 18.00783157348633 9.349713325500488 13.02211666107178 C 9.349713325500488 8.003983497619629 6.810329914093018 3.351616621017456 2.616750240325928 0.4999963343143463 L 136.5342102050781 0.4999963343143463 L 150.3733367919922 14.27299976348877 L 150.3733367919922 25.50019645690918 Z" stroke="none"/>
          <path d="M 149.8733367919922 25.00019645690918 L 149.8733367919922 14.4808235168457 L 136.3277893066406 0.9999963045120239 L 4.115599632263184 0.9999963045120239 C 7.714410305023193 3.97197151184082 9.849713325500488 8.342596054077148 9.849713325500488 13.02211666107178 C 9.849713325500488 17.67237663269043 7.733673095703125 22.0278377532959 4.167840480804443 25.00011825561523 L 149.8733367919922 25.00019645690918 M 150.8733367919922 26.00019645690918 L 150.8733062744141 26.0001163482666 L 0.8953729867935181 26.0001163482666 C 5.801612854003906 23.38873672485352 8.849713325500488 18.41657638549805 8.849713325500488 13.02211666107178 C 8.849713325500488 7.590756416320801 5.769692897796631 2.600976228713989 0.8115929961204529 -3.678894017866696e-06 L 136.7406158447266 -3.678894017866696e-06 L 150.8733367919922 14.06519603729248 L 150.8733367919922 26.00019645690918 Z" stroke="none"/>
        </g>
        <g transform="matrix(-1, 0, 0, -1, 177.61, 26)" filter="url(#Subtraction_14)">
          <g id="Subtraction_14-3" data-name="Subtraction 14" transform="translate(150.87 26) rotate(180)" fill="#fff">
            <path d="M 150.3733367919922 25.50019645690918 L 2.68110179901123 25.5001163482666 C 6.834603309631348 22.64444732666016 9.349713325500488 18.00783157348633 9.349713325500488 13.02211666107178 C 9.349713325500488 8.003983497619629 6.810329914093018 3.351616621017456 2.616750240325928 0.4999963343143463 L 136.5342102050781 0.4999963343143463 L 150.3733367919922 14.27299976348877 L 150.3733367919922 25.50019645690918 Z" stroke="none"/>
            <path d="M 149.8733367919922 25.00019645690918 L 149.8733367919922 14.4808235168457 L 136.3277893066406 0.9999963045120239 L 4.115599632263184 0.9999963045120239 C 7.714410305023193 3.97197151184082 9.849713325500488 8.342596054077148 9.849713325500488 13.02211666107178 C 9.849713325500488 17.67237663269043 7.733673095703125 22.0278377532959 4.167840480804443 25.00011825561523 L 149.8733367919922 25.00019645690918 M 150.8733367919922 26.00019645690918 L 150.8733062744141 26.0001163482666 L 0.8953729867935181 26.0001163482666 C 5.801612854003906 23.38873672485352 8.849713325500488 18.41657638549805 8.849713325500488 13.02211666107178 C 8.849713325500488 7.590756416320801 5.769692897796631 2.600976228713989 0.8115929961204529 -3.678894017866696e-06 L 136.7406158447266 -3.678894017866696e-06 L 150.8733367919922 14.06519603729248 L 150.8733367919922 26.00019645690918 Z" stroke="none"/>
          </g>
        </g>
        <g id="Subtraction_14-4" data-name="Subtraction 14" transform="translate(26.733 0)" fill="none">
          <path d="M 150.3733367919922 25.50019645690918 L 2.68110179901123 25.5001163482666 C 6.834603309631348 22.64444732666016 9.349713325500488 18.00783157348633 9.349713325500488 13.02211666107178 C 9.349713325500488 8.003983497619629 6.810329914093018 3.351616621017456 2.616750240325928 0.4999963343143463 L 136.5342102050781 0.4999963343143463 L 150.3733367919922 14.27299976348877 L 150.3733367919922 25.50019645690918 Z" stroke="none"/>
          <path d="M 149.8733367919922 25.00019645690918 L 149.8733367919922 14.4808235168457 L 136.3277893066406 0.9999963045120239 L 4.115599632263184 0.9999963045120239 C 7.714410305023193 3.97197151184082 9.849713325500488 8.342596054077148 9.849713325500488 13.02211666107178 C 9.849713325500488 17.67237663269043 7.733673095703125 22.0278377532959 4.167840480804443 25.00011825561523 L 149.8733367919922 25.00019645690918 M 150.8733367919922 26.00019645690918 L 150.8733062744141 26.0001163482666 L 0.8953729867935181 26.0001163482666 C 5.801612854003906 23.38873672485352 8.849713325500488 18.41657638549805 8.849713325500488 13.02211666107178 C 8.849713325500488 7.590756416320801 5.769692897796631 2.600976228713989 0.8115929961204529 -3.678894017866696e-06 L 136.7406158447266 -3.678894017866696e-06 L 150.8733367919922 14.06519603729248 L 150.8733367919922 26.00019645690918 Z" stroke="none" fill="#30a1cf"/>
        </g>
      </g>
    </g>
  </g>
</svg>
