<svg xmlns="http://www.w3.org/2000/svg" xmlns:xlink="http://www.w3.org/1999/xlink" width="176.151" height="34" viewBox="0 0 176.151 34">
  <defs>
    <filter id="Long_Button">
      <feOffset input="SourceAlpha"/>
      <feGaussianBlur stdDeviation="5" result="blur"/>
      <feFlood flood-color="#30a1cf" flood-opacity="0.502" result="color"/>
      <feComposite operator="out" in="SourceGraphic" in2="blur"/>
      <feComposite operator="in" in="color"/>
      <feComposite operator="in" in2="SourceGraphic"/>
    </filter>
  </defs>
  <g data-type="innerShadowGroup">
    <g id="Long_Button-2" data-name="Long Button" transform="translate(0 0)" fill="rgba(2,38,70,0.5)">
      <path d="M 175.6506958007812 33.50019836425781 L 0.500007688999176 33.50019836425781 L 0.500007688999176 0.4999821186065674 L 156.5619354248047 0.4998739063739777 L 175.6506958007812 18.81769371032715 L 175.6506958007812 33.50019836425781 Z" stroke="none"/>
      <path d="M 175.1506958007812 33.00020599365234 L 175.1506958007812 19.03085708618164 L 156.3608551025391 0.9998888969421387 L 1.000014662742615 1.000001549720764 L 1.000014662742615 33.00020599365234 L 175.1506958007812 33.00020599365234 M 176.1506958007812 34.00020599365234 L 1.462069394619903e-05 34.00020599365234 L 1.462069394619903e-05 2.22917037717707e-06 L 156.7630310058594 -0.000111407192889601 L 176.1506958007812 18.60452461242676 L 176.1506958007812 34.00020599365234 Z" stroke="none"/>
    </g>
    <g transform="matrix(1, 0, 0, 1, 0, 0)" filter="url(#Long_Button)">
      <g id="Long_Button-3" data-name="Long Button" transform="translate(0 0)" fill="#fff">
        <path d="M 175.6506958007812 33.50019836425781 L 0.500007688999176 33.50019836425781 L 0.500007688999176 0.4999821186065674 L 156.5619354248047 0.4998739063739777 L 175.6506958007812 18.81769371032715 L 175.6506958007812 33.50019836425781 Z" stroke="none"/>
        <path d="M 175.1506958007812 33.00020599365234 L 175.1506958007812 19.03085708618164 L 156.3608551025391 0.9998888969421387 L 1.000014662742615 1.000001549720764 L 1.000014662742615 33.00020599365234 L 175.1506958007812 33.00020599365234 M 176.1506958007812 34.00020599365234 L 1.462069394619903e-05 34.00020599365234 L 1.462069394619903e-05 2.22917037717707e-06 L 156.7630310058594 -0.000111407192889601 L 176.1506958007812 18.60452461242676 L 176.1506958007812 34.00020599365234 Z" stroke="none"/>
      </g>
    </g>
    <g id="Long_Button-4" data-name="Long Button" transform="translate(0 0)" fill="none">
      <path d="M 175.6506958007812 33.50019836425781 L 0.500007688999176 33.50019836425781 L 0.500007688999176 0.4999821186065674 L 156.5619354248047 0.4998739063739777 L 175.6506958007812 18.81769371032715 L 175.6506958007812 33.50019836425781 Z" stroke="none"/>
      <path d="M 175.1506958007812 33.00020599365234 L 175.1506958007812 19.03085708618164 L 156.3608551025391 0.9998888969421387 L 1.000014662742615 1.000001549720764 L 1.000014662742615 33.00020599365234 L 175.1506958007812 33.00020599365234 M 176.1506958007812 34.00020599365234 L 1.462069394619903e-05 34.00020599365234 L 1.462069394619903e-05 2.22917037717707e-06 L 156.7630310058594 -0.000111407192889601 L 176.1506958007812 18.60452461242676 L 176.1506958007812 34.00020599365234 Z" stroke="none" fill="#30a1cf"/>
    </g>
  </g>
</svg>
