<svg xmlns="http://www.w3.org/2000/svg" xmlns:xlink="http://www.w3.org/1999/xlink" width="159.874" height="26" viewBox="0 0 159.874 26">
  <defs>
    <filter id="Subtraction_14">
      <feOffset input="SourceAlpha"/>
      <feGaussianBlur stdDeviation="5" result="blur"/>
      <feFlood flood-color="#30a1cf" flood-opacity="0.502" result="color"/>
      <feComposite operator="out" in="SourceGraphic" in2="blur"/>
      <feComposite operator="in" in="color"/>
      <feComposite operator="in" in2="SourceGraphic"/>
    </filter>
  </defs>
  <g data-type="innerShadowGroup">
    <g id="Subtraction_14-2" data-name="Subtraction 14" transform="translate(-29.088 -5.5)" fill="rgba(2,38,70,0.5)">
      <path d="M 174.6523132324219 31.00002861022949 L 30.95698165893555 31.00002861022949 C 35.11012268066406 28.14444351196289 37.62500381469727 23.50783348083496 37.62500381469727 18.52202987670898 C 37.62500381469727 13.5037899017334 35.08588790893555 8.85145092010498 30.89265251159668 5.999929428100586 L 188.4613189697266 5.999929428100586 L 188.4612884521484 17.12312507629395 L 174.6523132324219 31.00002861022949 Z" stroke="none"/>
      <path d="M 174.4445037841797 30.5000114440918 L 187.9613037109375 16.91671371459961 L 187.9613189697266 6.499927997589111 L 32.39144134521484 6.499927997589111 C 35.98995971679688 9.47182559967041 38.12498474121094 13.8423957824707 38.12498474121094 18.52201080322266 C 38.12498474121094 23.17235946655273 36.00919342041016 27.52778053283691 32.44365692138672 30.5000114440918 L 174.4445037841797 30.5000114440918 M 178.5206756591797 31.5000114440918 L 29.17134094238281 31.5000114440918 C 34.07715225219727 28.88876152038574 37.12498474121094 23.91659355163574 37.12498474121094 18.52201080322266 C 37.12498474121094 13.09053230285645 34.04523468017578 8.100761413574219 29.08757019042969 5.499927997589111 L 188.9613189697266 5.499927997589111 L 188.9613037109375 17.32949066162109 L 174.8610534667969 31.49911499023438 L 178.5206756591797 31.49801063537598 L 178.5206756591797 31.5000114440918 Z" stroke="none"/>
    </g>
    <g transform="matrix(1, 0, 0, 1, 0, 0)" filter="url(#Subtraction_14)">
      <g id="Subtraction_14-3" data-name="Subtraction 14" transform="translate(-29.09 -5.5)" fill="#fff">
        <path d="M 174.6523132324219 31.00002861022949 L 30.95698165893555 31.00002861022949 C 35.11012268066406 28.14444351196289 37.62500381469727 23.50783348083496 37.62500381469727 18.52202987670898 C 37.62500381469727 13.5037899017334 35.08588790893555 8.85145092010498 30.89265251159668 5.999929428100586 L 188.4613189697266 5.999929428100586 L 188.4612884521484 17.12312507629395 L 174.6523132324219 31.00002861022949 Z" stroke="none"/>
        <path d="M 174.4445037841797 30.5000114440918 L 187.9613037109375 16.91671371459961 L 187.9613189697266 6.499927997589111 L 32.39144134521484 6.499927997589111 C 35.98995971679688 9.47182559967041 38.12498474121094 13.8423957824707 38.12498474121094 18.52201080322266 C 38.12498474121094 23.17235946655273 36.00919342041016 27.52778053283691 32.44365692138672 30.5000114440918 L 174.4445037841797 30.5000114440918 M 178.5206756591797 31.5000114440918 L 29.17134094238281 31.5000114440918 C 34.07715225219727 28.88876152038574 37.12498474121094 23.91659355163574 37.12498474121094 18.52201080322266 C 37.12498474121094 13.09053230285645 34.04523468017578 8.100761413574219 29.08757019042969 5.499927997589111 L 188.9613189697266 5.499927997589111 L 188.9613037109375 17.32949066162109 L 174.8610534667969 31.49911499023438 L 178.5206756591797 31.49801063537598 L 178.5206756591797 31.5000114440918 Z" stroke="none"/>
      </g>
    </g>
    <g id="Subtraction_14-4" data-name="Subtraction 14" transform="translate(-29.088 -5.5)" fill="none">
      <path d="M 174.6523132324219 31.00002861022949 L 30.95698165893555 31.00002861022949 C 35.11012268066406 28.14444351196289 37.62500381469727 23.50783348083496 37.62500381469727 18.52202987670898 C 37.62500381469727 13.5037899017334 35.08588790893555 8.85145092010498 30.89265251159668 5.999929428100586 L 188.4613189697266 5.999929428100586 L 188.4612884521484 17.12312507629395 L 174.6523132324219 31.00002861022949 Z" stroke="none"/>
      <path d="M 174.4445037841797 30.5000114440918 L 187.9613037109375 16.91671371459961 L 187.9613189697266 6.499927997589111 L 32.39144134521484 6.499927997589111 C 35.98995971679688 9.47182559967041 38.12498474121094 13.8423957824707 38.12498474121094 18.52201080322266 C 38.12498474121094 23.17235946655273 36.00919342041016 27.52778053283691 32.44365692138672 30.5000114440918 L 174.4445037841797 30.5000114440918 M 178.5206756591797 31.5000114440918 L 29.17134094238281 31.5000114440918 C 34.07715225219727 28.88876152038574 37.12498474121094 23.91659355163574 37.12498474121094 18.52201080322266 C 37.12498474121094 13.09053230285645 34.04523468017578 8.100761413574219 29.08757019042969 5.499927997589111 L 188.9613189697266 5.499927997589111 L 188.9613037109375 17.32949066162109 L 174.8610534667969 31.49911499023438 L 178.5206756591797 31.49801063537598 L 178.5206756591797 31.5000114440918 Z" stroke="none" fill="#30a1cf"/>
    </g>
  </g>
</svg>
