<svg xmlns="http://www.w3.org/2000/svg" xmlns:xlink="http://www.w3.org/1999/xlink" width="147.456" height="149.297" viewBox="0 0 147.456 149.297">
  <defs>
    <radialGradient id="radial-gradient" cx="0.5" cy="0.5" r="0.5" gradientUnits="objectBoundingBox">
      <stop offset="0" stop-color="#7ff" stop-opacity="0"/>
      <stop offset="0.632" stop-color="#63f8f9" stop-opacity="0"/>
      <stop offset="1" stop-color="#41f8ff" stop-opacity="0.29"/>
    </radialGradient>
    <filter id="Ellipse_12" x="57.522" y="111.297" width="32" height="32" filterUnits="userSpaceOnUse">
      <feOffset input="SourceAlpha"/>
      <feGaussianBlur stdDeviation="5" result="blur"/>
      <feFlood flood-color="#4ff"/>
      <feComposite operator="in" in2="blur"/>
      <feComposite in="SourceGraphic"/>
    </filter>
    <radialGradient id="radial-gradient-2" cx="0.5" cy="0.5" r="0.5" gradientUnits="objectBoundingBox">
      <stop offset="0" stop-color="#101f39"/>
      <stop offset="1" stop-opacity="0"/>
    </radialGradient>
    <radialGradient id="radial-gradient-3" cx="0.5" cy="0.5" r="0.5" gradientUnits="objectBoundingBox">
      <stop offset="0" stop-color="#7ff"/>
      <stop offset="0.665" stop-color="#20dfe6"/>
      <stop offset="1" stop-color="#1ddee5" stop-opacity="0"/>
    </radialGradient>
    <filter id="Ellipse_10" x="49.522" y="105.297" width="48" height="44" filterUnits="userSpaceOnUse">
      <feOffset input="SourceAlpha"/>
      <feGaussianBlur stdDeviation="5" result="blur-2"/>
      <feFlood flood-color="#4ff"/>
      <feComposite operator="in" in2="blur-2"/>
      <feComposite in="SourceGraphic"/>
    </filter>
    <radialGradient id="radial-gradient-4" cx="0.5" cy="0.5" r="0.5" gradientUnits="objectBoundingBox">
      <stop offset="0" stop-color="#6ddcff" stop-opacity="0"/>
      <stop offset="1" stop-color="#004594" stop-opacity="0"/>
    </radialGradient>
    <linearGradient id="linear-gradient" x1="0.5" x2="0.5" y2="1" gradientUnits="objectBoundingBox">
      <stop offset="0" stop-color="#00d9d9" stop-opacity="0"/>
      <stop offset="0.402" stop-color="aqua" stop-opacity="0"/>
      <stop offset="1" stop-color="#f3ffff"/>
    </linearGradient>
    <filter id="Subtraction_17" x="0" y="0" width="147.456" height="146.012" filterUnits="userSpaceOnUse">
      <feOffset input="SourceAlpha"/>
      <feGaussianBlur stdDeviation="7.5" result="blur-3"/>
      <feFlood flood-color="#7affff"/>
      <feComposite operator="in" in2="blur-3"/>
      <feComposite in="SourceGraphic"/>
    </filter>
  </defs>
  <g id="forum" transform="translate(46.408 28.952)">
    <g id="MapMarker" transform="translate(-23.908 -23.656)" style="isolation: isolate">
      <g transform="matrix(1, 0, 0, 1, -22.5, -5.3)" filter="url(#Ellipse_12)" style="mix-blend-mode: color-dodge;isolation: isolate">
        <g id="Ellipse_12-2" data-name="Ellipse 12" transform="translate(72.52 126.3)" stroke="#3ce9ee" stroke-width="1" fill="url(#radial-gradient)">
          <circle cx="1" cy="1" r="1" stroke="none"/>
          <circle cx="1" cy="1" r="0.5" fill="none"/>
        </g>
      </g>
      <circle id="Ellipse_11" data-name="Ellipse 11" cx="36" cy="36" r="36" transform="translate(15.022)" fill="url(#radial-gradient-2)"/>
      <g transform="matrix(1, 0, 0, 1, -22.5, -5.3)" filter="url(#Ellipse_10)" style="mix-blend-mode: color-dodge;isolation: isolate">
        <ellipse id="Ellipse_10-2" data-name="Ellipse 10" cx="9" cy="7" rx="9" ry="7" transform="translate(64.52 120.3)" fill="url(#radial-gradient-3)"/>
      </g>
      <g id="Path_46" data-name="Path 46" transform="translate(45.921 28.596)" fill="url(#radial-gradient-4)">
        <path d="M.25,0A.25.25,0,1,1,0,.25.25.25,0,0,1,.25,0Z" stroke="none"/>
        <path d="M 0.25 0 C 0.3880699872970581 0 0.5 0.1119300127029419 0.5 0.25 C 0.5 0.3880699872970581 0.3880699872970581 0.5 0.25 0.5 C 0.1119300127029419 0.5 0 0.3880699872970581 0 0.25 C 0 0.1119300127029419 0.1119300127029419 0 0.25 0 Z" stroke="none" fill="rgba(48,161,207,0)"/>
      </g>
      <g transform="matrix(1, 0, 0, 1, -22.5, -5.3)" filter="url(#Subtraction_17)">
        <path id="Subtraction_17-2" data-name="Subtraction 17" d="M51.228,118.215,0,17.2H102.456Z" transform="translate(22.5 5.3)" fill="url(#linear-gradient)"/>
      </g>
    </g>
    <path id="Path_59" data-name="Path 59" d="M101.672,1086.166a4.4,4.4,0,0,1,.43-3.486l-.44-1.474c-.715.2-1.429.409-2.133.619a131.259,131.259,0,0,0-15,5.417l2.21,7.411a131.207,131.207,0,0,0,15.518-3.682c.707-.211,1.418-.428,2.123-.65l-.44-1.474A4.4,4.4,0,0,1,101.672,1086.166Z" transform="translate(-73.578 -1065.477)" fill="#fff"/>
    <path id="Path_60" data-name="Path 60" d="M62.61,1117.862l1.977,6.765,2.371-.652-2.047-6.865Z" transform="translate(-55.874 -1094.477)" fill="#fff"/>
    <path id="Path_61" data-name="Path 61" d="M186.7,1088.627a2.319,2.319,0,0,0-1.489-.061,2.5,2.5,0,0,0-1.019.615l-.14.18a2.316,2.316,0,0,0-.394,2.078,2.28,2.28,0,0,0,1.468,1.523,2.4,2.4,0,0,0,1.59-.036,2.266,2.266,0,0,0,1.091-.824,2.293,2.293,0,0,0,.278-1.982A2.468,2.468,0,0,0,186.7,1088.627Z" transform="translate(-153.565 -1071.345)" fill="#fff"/>
    <path id="Path_62" data-name="Path 62" d="M225.13,1061.6c-.071-.238-1.06-.917-4.552-.917A76.991,76.991,0,0,0,204.2,1063.1l.407,1.365a4.374,4.374,0,0,1,1.905,5.726,2.52,2.52,0,0,1-.11.234l-.012.02.407,1.363a86.21,86.21,0,0,0,13.679-6.112C224.557,1063.295,225.22,1061.9,225.13,1061.6Z" transform="translate(-170.238 -1048.899)" fill="#fff"/>
    <g id="Group_54" data-name="Group 54" transform="translate(0 0)">
      <path id="Path_63" data-name="Path 63" d="M33.848,1014.028a31.34,31.34,0,0,1,6.322-3.049c2.84-1.107,5.523-2.153,7.42-4.471,2.349-2.869,2.088-4.906,1.446-6.462a5.1,5.1,0,0,1-.9,2.347c-1.328,2.153-4.781,3.125-9.5,4.984-7.183,2.827-10.5,4.419-11.009,9.443a7.022,7.022,0,0,0,3.161,6.756A8.01,8.01,0,0,1,33.848,1014.028Z" transform="translate(-27.578 -999.924)" fill="#fff"/>
      <path id="Path_64" data-name="Path 64" d="M69.018,1002.578a9.092,9.092,0,0,0-1.845-3.167c.782,1.731,1.316,4.149-1.444,7.52-2.025,2.474-4.8,3.555-7.735,4.7a30.73,30.73,0,0,0-6.173,2.971,7.234,7.234,0,0,0-2.795,8.583c.043-.145.089-.291.143-.437a11.49,11.49,0,0,1,6.337-6.211c4.98-1.792,8.215-2.494,10.874-5.6C68.761,1008.147,69.777,1005.451,69.018,1002.578Z" transform="translate(-44.554 -999.411)" fill="#fff"/>
    </g>
  </g>
</svg>
