<svg xmlns="http://www.w3.org/2000/svg" xmlns:xlink="http://www.w3.org/1999/xlink" width="147.456" height="149.297" viewBox="0 0 147.456 149.297">
  <defs>
    <radialGradient id="radial-gradient" cx="0.5" cy="0.5" r="0.5" gradientUnits="objectBoundingBox">
      <stop offset="0" stop-color="#7ff" stop-opacity="0"/>
      <stop offset="0.632" stop-color="#63f8f9" stop-opacity="0"/>
      <stop offset="1" stop-color="#41f8ff" stop-opacity="0.29"/>
    </radialGradient>
    <filter id="Ellipse_12" x="57.522" y="111.297" width="32" height="32" filterUnits="userSpaceOnUse">
      <feOffset input="SourceAlpha"/>
      <feGaussianBlur stdDeviation="5" result="blur"/>
      <feFlood flood-color="#4ff"/>
      <feComposite operator="in" in2="blur"/>
      <feComposite in="SourceGraphic"/>
    </filter>
    <radialGradient id="radial-gradient-2" cx="0.5" cy="0.5" r="0.5" gradientUnits="objectBoundingBox">
      <stop offset="0" stop-color="#101f39"/>
      <stop offset="1" stop-opacity="0"/>
    </radialGradient>
    <radialGradient id="radial-gradient-3" cx="0.5" cy="0.5" r="0.5" gradientUnits="objectBoundingBox">
      <stop offset="0" stop-color="#7ff"/>
      <stop offset="0.665" stop-color="#20dfe6"/>
      <stop offset="1" stop-color="#1ddee5" stop-opacity="0"/>
    </radialGradient>
    <filter id="Ellipse_10" x="49.522" y="105.297" width="48" height="44" filterUnits="userSpaceOnUse">
      <feOffset input="SourceAlpha"/>
      <feGaussianBlur stdDeviation="5" result="blur-2"/>
      <feFlood flood-color="#4ff"/>
      <feComposite operator="in" in2="blur-2"/>
      <feComposite in="SourceGraphic"/>
    </filter>
    <radialGradient id="radial-gradient-4" cx="0.5" cy="0.5" r="0.5" gradientUnits="objectBoundingBox">
      <stop offset="0" stop-color="#6ddcff" stop-opacity="0"/>
      <stop offset="1" stop-color="#004594" stop-opacity="0"/>
    </radialGradient>
    <linearGradient id="linear-gradient" x1="0.5" x2="0.5" y2="1" gradientUnits="objectBoundingBox">
      <stop offset="0" stop-color="#00d9d9" stop-opacity="0"/>
      <stop offset="0.402" stop-color="aqua" stop-opacity="0"/>
      <stop offset="1" stop-color="#f3ffff"/>
    </linearGradient>
    <filter id="Subtraction_17" x="0" y="0" width="147.456" height="146.012" filterUnits="userSpaceOnUse">
      <feOffset input="SourceAlpha"/>
      <feGaussianBlur stdDeviation="7.5" result="blur-3"/>
      <feFlood flood-color="#7affff"/>
      <feComposite operator="in" in2="blur-3"/>
      <feComposite in="SourceGraphic"/>
    </filter>
  </defs>
  <g id="diamond" transform="translate(-894.515 -339.488)">
    <g id="MapMarker" transform="translate(917.015 344.785)" style="isolation: isolate">
      <g transform="matrix(1, 0, 0, 1, -22.5, -5.3)" filter="url(#Ellipse_12)" style="mix-blend-mode: color-dodge;isolation: isolate">
        <g id="Ellipse_12-2" data-name="Ellipse 12" transform="translate(72.52 126.3)" stroke="#3ce9ee" stroke-width="1" fill="url(#radial-gradient)">
          <circle cx="1" cy="1" r="1" stroke="none"/>
          <circle cx="1" cy="1" r="0.5" fill="none"/>
        </g>
      </g>
      <circle id="Ellipse_11" data-name="Ellipse 11" cx="36" cy="36" r="36" transform="translate(15.022)" fill="url(#radial-gradient-2)"/>
      <g transform="matrix(1, 0, 0, 1, -22.5, -5.3)" filter="url(#Ellipse_10)" style="mix-blend-mode: color-dodge;isolation: isolate">
        <ellipse id="Ellipse_10-2" data-name="Ellipse 10" cx="9" cy="7" rx="9" ry="7" transform="translate(64.52 120.3)" fill="url(#radial-gradient-3)"/>
      </g>
      <g id="Path_46" data-name="Path 46" transform="translate(45.921 28.596)" fill="url(#radial-gradient-4)">
        <path d="M.25,0A.25.25,0,1,1,0,.25.25.25,0,0,1,.25,0Z" stroke="none"/>
        <path d="M 0.25 0 C 0.3880699872970581 0 0.5 0.1119300127029419 0.5 0.25 C 0.5 0.3880699872970581 0.3880699872970581 0.5 0.25 0.5 C 0.1119300127029419 0.5 0 0.3880699872970581 0 0.25 C 0 0.1119300127029419 0.1119300127029419 0 0.25 0 Z" stroke="none" fill="rgba(48,161,207,0)"/>
      </g>
      <g transform="matrix(1, 0, 0, 1, -22.5, -5.3)" filter="url(#Subtraction_17)">
        <path id="Subtraction_17-2" data-name="Subtraction 17" d="M51.228,118.215,0,17.2H102.456Z" transform="translate(22.5 5.3)" fill="url(#linear-gradient)"/>
      </g>
    </g>
    <path id="Path_75" data-name="Path 75" d="M64.242,1395.784l6.95-13.477,13.925.008Zm15.091-21.728,6.6,6.557-13.2-.008Zm-2.066-.347-6.593,6.547-6.585-6.539Zm-8.658,6.9H55.491l6.535-6.536Zm-8.637-6.887-6.535,6.534-6.542-6.542Zm-15.133.343,6.545,6.545-13.1.008Zm-5.74,8.254,13.818-.008,6.9,13.469Zm15.73-.009H69.277l-7.25,14.059Z" transform="translate(906.132 -994.09)" fill="#fff"/>
  </g>
</svg>
