<svg id="Long_Button" data-name="Long Button" xmlns="http://www.w3.org/2000/svg" xmlns:xlink="http://www.w3.org/1999/xlink" width="120.887" height="26" viewBox="0 0 120.887 26">
  <defs>
    <filter id="Subtraction_14">
      <feOffset input="SourceAlpha"/>
      <feGaussianBlur stdDeviation="5" result="blur"/>
      <feFlood flood-color="#30a1cf" flood-opacity="0.502" result="color"/>
      <feComposite operator="out" in="SourceGraphic" in2="blur"/>
      <feComposite operator="in" in="color"/>
      <feComposite operator="in" in2="SourceGraphic"/>
    </filter>
  </defs>
  <g id="Long_Button-2" data-name="Long Button" transform="translate(124.265 26) rotate(180)">
    <g data-type="innerShadowGroup">
      <g id="Subtraction_14-2" data-name="Subtraction 14" transform="translate(3.378)" fill="rgba(2,38,70,0.5)">
        <path d="M 120.3871002197266 25.50010299682617 L 0.4999962747097015 25.50010299682617 L 0.4999962747097015 0.5000100135803223 L 106.5390701293945 0.4998877644538879 L 120.3871002197266 14.28302383422852 L 120.3871002197266 25.50010299682617 Z" stroke="none"/>
        <path d="M 119.8871002197266 25.00009536743164 L 119.8871002197266 14.49082565307617 L 106.3326568603516 0.9998956918716431 L 1.00000011920929 1.000010848045349 L 1.00000011920929 25.00009536743164 L 119.8871002197266 25.00009536743164 M 120.8871002197266 26.00009536743164 L 1.098632793627985e-07 26.00009536743164 L 1.098632793627985e-07 1.18982952699298e-05 L 106.7454986572266 -0.0001047683690558188 L 120.8871002197266 14.07522869110107 L 120.8871002197266 26.00009536743164 Z" stroke="none"/>
      </g>
      <g transform="matrix(-1, 0, 0, -1, 124.27, 26)" filter="url(#Subtraction_14)">
        <g id="Subtraction_14-3" data-name="Subtraction 14" transform="translate(120.89 26) rotate(180)" fill="#fff">
          <path d="M 120.3871002197266 25.50010299682617 L 0.4999962747097015 25.50010299682617 L 0.4999962747097015 0.5000100135803223 L 106.5390701293945 0.4998877644538879 L 120.3871002197266 14.28302383422852 L 120.3871002197266 25.50010299682617 Z" stroke="none"/>
          <path d="M 119.8871002197266 25.00009536743164 L 119.8871002197266 14.49082565307617 L 106.3326568603516 0.9998956918716431 L 1.00000011920929 1.000010848045349 L 1.00000011920929 25.00009536743164 L 119.8871002197266 25.00009536743164 M 120.8871002197266 26.00009536743164 L 1.098632793627985e-07 26.00009536743164 L 1.098632793627985e-07 1.18982952699298e-05 L 106.7454986572266 -0.0001047683690558188 L 120.8871002197266 14.07522869110107 L 120.8871002197266 26.00009536743164 Z" stroke="none"/>
        </g>
      </g>
      <g id="Subtraction_14-4" data-name="Subtraction 14" transform="translate(3.378)" fill="none">
        <path d="M 120.3871002197266 25.50010299682617 L 0.4999962747097015 25.50010299682617 L 0.4999962747097015 0.5000100135803223 L 106.5390701293945 0.4998877644538879 L 120.3871002197266 14.28302383422852 L 120.3871002197266 25.50010299682617 Z" stroke="none"/>
        <path d="M 119.8871002197266 25.00009536743164 L 119.8871002197266 14.49082565307617 L 106.3326568603516 0.9998956918716431 L 1.00000011920929 1.000010848045349 L 1.00000011920929 25.00009536743164 L 119.8871002197266 25.00009536743164 M 120.8871002197266 26.00009536743164 L 1.098632793627985e-07 26.00009536743164 L 1.098632793627985e-07 1.18982952699298e-05 L 106.7454986572266 -0.0001047683690558188 L 120.8871002197266 14.07522869110107 L 120.8871002197266 26.00009536743164 Z" stroke="none" fill="#30a1cf"/>
      </g>
    </g>
  </g>
</svg>
