<svg xmlns="http://www.w3.org/2000/svg" xmlns:xlink="http://www.w3.org/1999/xlink" width="348.688" height="68.501" viewBox="0 0 348.688 68.501">
  <defs>
    <filter id="Long_Button">
      <feOffset input="SourceAlpha"/>
      <feGaussianBlur stdDeviation="5" result="blur"/>
      <feFlood flood-color="#30a1cf" flood-opacity="0.502" result="color"/>
      <feComposite operator="out" in="SourceGraphic" in2="blur"/>
      <feComposite operator="in" in="color"/>
      <feComposite operator="in" in2="SourceGraphic"/>
    </filter>
    <filter id="Subtraction_14">
      <feOffset input="SourceAlpha"/>
      <feGaussianBlur stdDeviation="5" result="blur-2"/>
      <feFlood flood-color="#30a1cf" flood-opacity="0.502" result="color-2"/>
      <feComposite operator="out" in="SourceGraphic" in2="blur-2"/>
      <feComposite operator="in" in="color-2"/>
      <feComposite operator="in" in2="SourceGraphic"/>
    </filter>
    <filter id="Path_50" x="112.042" y="0" width="60.969" height="68.501" filterUnits="userSpaceOnUse">
      <feOffset input="SourceAlpha"/>
      <feGaussianBlur stdDeviation="2.5" result="blur-3"/>
      <feFlood flood-color="#f7399e"/>
      <feComposite operator="in" in2="blur-3"/>
      <feComposite in="SourceGraphic"/>
    </filter>
  </defs>
  <g id="NavProfile" transform="translate(-1520.311 7.5)">
    <g data-type="innerShadowGroup">
      <g id="Long_Button-2" data-name="Long Button" transform="translate(1683.85 13.75)" fill="rgba(2,38,70,0.5)">
        <path d="M 170.8686981201172 25.50001907348633 L 0.5000006556510925 25.50001907348633 L 0.5000006556510925 0.4999237656593323 L 184.6498107910156 0.4999237656593323 L 184.6498107910156 11.65015029907227 L 170.8686981201172 25.50001907348633 Z" stroke="none"/>
        <path d="M 170.6608734130859 25.00001907348633 L 184.1498107910156 11.44378089904785 L 184.1498107910156 0.9999237656593323 L 1.000000596046448 0.9999237656593323 L 1.000000596046448 25.00001907348633 L 170.6608734130859 25.00001907348633 M 175.9553833007812 26.00001907348633 L 6.336030651254987e-07 26.00001907348633 L 6.336030651254987e-07 -7.622927660122514e-05 L 185.1498107910156 -7.622927660122514e-05 L 185.1498107910156 11.85651874542236 L 171.0774078369141 25.99913787841797 L 175.9553833007812 25.99801826477051 L 175.9553833007812 26.00001907348633 Z" stroke="none"/>
      </g>
      <g transform="matrix(1, 0, 0, 1, 1520.31, -7.5)" filter="url(#Long_Button)">
        <g id="Long_Button-3" data-name="Long Button" transform="translate(163.54 21.25)" fill="#fff">
          <path d="M 170.8686981201172 25.50001907348633 L 0.5000006556510925 25.50001907348633 L 0.5000006556510925 0.4999237656593323 L 184.6498107910156 0.4999237656593323 L 184.6498107910156 11.65015029907227 L 170.8686981201172 25.50001907348633 Z" stroke="none"/>
          <path d="M 170.6608734130859 25.00001907348633 L 184.1498107910156 11.44378089904785 L 184.1498107910156 0.9999237656593323 L 1.000000596046448 0.9999237656593323 L 1.000000596046448 25.00001907348633 L 170.6608734130859 25.00001907348633 M 175.9553833007812 26.00001907348633 L 6.336030651254987e-07 26.00001907348633 L 6.336030651254987e-07 -7.622927660122514e-05 L 185.1498107910156 -7.622927660122514e-05 L 185.1498107910156 11.85651874542236 L 171.0774078369141 25.99913787841797 L 175.9553833007812 25.99801826477051 L 175.9553833007812 26.00001907348633 Z" stroke="none"/>
        </g>
      </g>
      <g id="Long_Button-4" data-name="Long Button" transform="translate(1683.85 13.75)" fill="none">
        <path d="M 170.8686981201172 25.50001907348633 L 0.5000006556510925 25.50001907348633 L 0.5000006556510925 0.4999237656593323 L 184.6498107910156 0.4999237656593323 L 184.6498107910156 11.65015029907227 L 170.8686981201172 25.50001907348633 Z" stroke="none"/>
        <path d="M 170.6608734130859 25.00001907348633 L 184.1498107910156 11.44378089904785 L 184.1498107910156 0.9999237656593323 L 1.000000596046448 0.9999237656593323 L 1.000000596046448 25.00001907348633 L 170.6608734130859 25.00001907348633 M 175.9553833007812 26.00001907348633 L 6.336030651254987e-07 26.00001907348633 L 6.336030651254987e-07 -7.622927660122514e-05 L 185.1498107910156 -7.622927660122514e-05 L 185.1498107910156 11.85651874542236 L 171.0774078369141 25.99913787841797 L 175.9553833007812 25.99801826477051 L 175.9553833007812 26.00001907348633 Z" stroke="none" fill="#30a1cf"/>
      </g>
    </g>
    <g id="Long_Button-5" data-name="Long Button" transform="translate(1520.311 13.75)">
      <g id="Long_Button-6" data-name="Long Button" transform="translate(124.265 26) rotate(180)">
        <g data-type="innerShadowGroup">
          <g id="Subtraction_14-2" data-name="Subtraction 14" transform="translate(3.378)" fill="rgba(2,38,70,0.5)">
            <path d="M 120.3871002197266 25.50010299682617 L 0.4999962747097015 25.50010299682617 L 0.4999962747097015 0.5000100135803223 L 106.5390701293945 0.4998877644538879 L 120.3871002197266 14.28302383422852 L 120.3871002197266 25.50010299682617 Z" stroke="none"/>
            <path d="M 119.8871002197266 25.00009536743164 L 119.8871002197266 14.49082565307617 L 106.3326568603516 0.9998956918716431 L 1.00000011920929 1.000010848045349 L 1.00000011920929 25.00009536743164 L 119.8871002197266 25.00009536743164 M 120.8871002197266 26.00009536743164 L 1.098632793627985e-07 26.00009536743164 L 1.098632793627985e-07 1.18982952699298e-05 L 106.7454986572266 -0.0001047683690558188 L 120.8871002197266 14.07522869110107 L 120.8871002197266 26.00009536743164 Z" stroke="none"/>
          </g>
          <g transform="matrix(-1, 0, 0, -1, 124.27, 47.25)" filter="url(#Subtraction_14)">
            <g id="Subtraction_14-3" data-name="Subtraction 14" transform="translate(120.89 47.25) rotate(180)" fill="#fff">
              <path d="M 120.3871002197266 25.50010299682617 L 0.4999962747097015 25.50010299682617 L 0.4999962747097015 0.5000100135803223 L 106.5390701293945 0.4998877644538879 L 120.3871002197266 14.28302383422852 L 120.3871002197266 25.50010299682617 Z" stroke="none"/>
              <path d="M 119.8871002197266 25.00009536743164 L 119.8871002197266 14.49082565307617 L 106.3326568603516 0.9998956918716431 L 1.00000011920929 1.000010848045349 L 1.00000011920929 25.00009536743164 L 119.8871002197266 25.00009536743164 M 120.8871002197266 26.00009536743164 L 1.098632793627985e-07 26.00009536743164 L 1.098632793627985e-07 1.18982952699298e-05 L 106.7454986572266 -0.0001047683690558188 L 120.8871002197266 14.07522869110107 L 120.8871002197266 26.00009536743164 Z" stroke="none"/>
            </g>
          </g>
          <g id="Subtraction_14-4" data-name="Subtraction 14" transform="translate(3.378)" fill="none">
            <path d="M 120.3871002197266 25.50010299682617 L 0.4999962747097015 25.50010299682617 L 0.4999962747097015 0.5000100135803223 L 106.5390701293945 0.4998877644538879 L 120.3871002197266 14.28302383422852 L 120.3871002197266 25.50010299682617 Z" stroke="none"/>
            <path d="M 119.8871002197266 25.00009536743164 L 119.8871002197266 14.49082565307617 L 106.3326568603516 0.9998956918716431 L 1.00000011920929 1.000010848045349 L 1.00000011920929 25.00009536743164 L 119.8871002197266 25.00009536743164 M 120.8871002197266 26.00009536743164 L 1.098632793627985e-07 26.00009536743164 L 1.098632793627985e-07 1.18982952699298e-05 L 106.7454986572266 -0.0001047683690558188 L 120.8871002197266 14.07522869110107 L 120.8871002197266 26.00009536743164 Z" stroke="none" fill="#30a1cf"/>
          </g>
        </g>
      </g>
    </g>
    <path id="Path_530" data-name="Path 530" d="M50.025,1383.693l3.143-6.1,6.3,0Zm6.825-9.827,2.987,2.966-5.97,0Zm-.934-.157-2.982,2.961-2.978-2.958ZM52,1376.827H46.068l2.956-2.956Zm-3.906-3.115-2.955,2.955-2.959-2.959Zm-6.844.155,2.96,2.96-5.924,0Zm-2.6,3.733,6.25,0,3.119,6.092Zm7.114,0H52.3l-3.279,6.359Z" transform="translate(1490.075 -1352.832)" fill="#fff"/>
    <text id="_300" data-name="300" transform="translate(1555 18)" fill="#fff" font-size="12" font-family="Helvetica"><tspan x="0" y="9">300</tspan></text>
    <g id="Profile_pic" data-name="Profile pic" transform="translate(1639.854)">
      <g transform="matrix(1, 0, 0, 1, -119.54, -7.5)" filter="url(#Path_50)">
        <g id="Path_50-2" data-name="Path 50" transform="translate(165.51 7.5) rotate(90)" fill="none">
          <path d="M40.126,0,53.5,22.985,40.126,45.969H13.375L0,22.985,13.375,0Z" stroke="none"/>
          <path d="M 15.10039901733398 3.000003814697266 L 3.470973968505859 22.98453521728516 L 15.10037994384766 42.96906280517578 L 38.40029907226562 42.96906280517578 L 50.02972412109375 22.98453330993652 L 38.40029907226562 3.000003814697266 L 15.10039901733398 3.000003814697266 M 13.37518310546875 3.814697265625e-06 L 40.12551498413086 3.814697265625e-06 L 53.50070571899414 22.98453330993652 L 40.12551498413086 45.96906280517578 L 13.37516403198242 45.96906280517578 L -3.814697265625e-06 22.98453330993652 L 13.37518310546875 3.814697265625e-06 Z" stroke="none" fill="#f7397a"/>
        </g>
      </g>
    </g>
  </g>
</svg>
