<svg xmlns="http://www.w3.org/2000/svg" xmlns:xlink="http://www.w3.org/1999/xlink" width="185.15" height="26" viewBox="0 0 185.15 26">
  <defs>
    <filter id="Long_Button">
      <feOffset input="SourceAlpha"/>
      <feGaussianBlur stdDeviation="5" result="blur"/>
      <feFlood flood-color="#30a1cf" flood-opacity="0.502" result="color"/>
      <feComposite operator="out" in="SourceGraphic" in2="blur"/>
      <feComposite operator="in" in="color"/>
      <feComposite operator="in" in2="SourceGraphic"/>
    </filter>
  </defs>
  <g data-type="innerShadowGroup">
    <g id="Long_Button-2" data-name="Long Button" transform="translate(0 0)" fill="rgba(2,38,70,0.5)">
      <path d="M 170.8686981201172 25.50001907348633 L 0.5000006556510925 25.50001907348633 L 0.5000006556510925 0.4999237656593323 L 184.6498107910156 0.4999237656593323 L 184.6498107910156 11.65015029907227 L 170.8686981201172 25.50001907348633 Z" stroke="none"/>
      <path d="M 170.6608734130859 25.00001907348633 L 184.1498107910156 11.44378089904785 L 184.1498107910156 0.9999237656593323 L 1.000000596046448 0.9999237656593323 L 1.000000596046448 25.00001907348633 L 170.6608734130859 25.00001907348633 M 175.9553833007812 26.00001907348633 L 6.336030651254987e-07 26.00001907348633 L 6.336030651254987e-07 -7.622927660122514e-05 L 185.1498107910156 -7.622927660122514e-05 L 185.1498107910156 11.85651874542236 L 171.0774078369141 25.99913787841797 L 175.9553833007812 25.99801826477051 L 175.9553833007812 26.00001907348633 Z" stroke="none"/>
    </g>
    <g transform="matrix(1, 0, 0, 1, 0, 0)" filter="url(#Long_Button)">
      <g id="Long_Button-3" data-name="Long Button" transform="translate(0 0)" fill="#fff">
        <path d="M 170.8686981201172 25.50001907348633 L 0.5000006556510925 25.50001907348633 L 0.5000006556510925 0.4999237656593323 L 184.6498107910156 0.4999237656593323 L 184.6498107910156 11.65015029907227 L 170.8686981201172 25.50001907348633 Z" stroke="none"/>
        <path d="M 170.6608734130859 25.00001907348633 L 184.1498107910156 11.44378089904785 L 184.1498107910156 0.9999237656593323 L 1.000000596046448 0.9999237656593323 L 1.000000596046448 25.00001907348633 L 170.6608734130859 25.00001907348633 M 175.9553833007812 26.00001907348633 L 6.336030651254987e-07 26.00001907348633 L 6.336030651254987e-07 -7.622927660122514e-05 L 185.1498107910156 -7.622927660122514e-05 L 185.1498107910156 11.85651874542236 L 171.0774078369141 25.99913787841797 L 175.9553833007812 25.99801826477051 L 175.9553833007812 26.00001907348633 Z" stroke="none"/>
      </g>
    </g>
    <g id="Long_Button-4" data-name="Long Button" transform="translate(0 0)" fill="none">
      <path d="M 170.8686981201172 25.50001907348633 L 0.5000006556510925 25.50001907348633 L 0.5000006556510925 0.4999237656593323 L 184.6498107910156 0.4999237656593323 L 184.6498107910156 11.65015029907227 L 170.8686981201172 25.50001907348633 Z" stroke="none"/>
      <path d="M 170.6608734130859 25.00001907348633 L 184.1498107910156 11.44378089904785 L 184.1498107910156 0.9999237656593323 L 1.000000596046448 0.9999237656593323 L 1.000000596046448 25.00001907348633 L 170.6608734130859 25.00001907348633 M 175.9553833007812 26.00001907348633 L 6.336030651254987e-07 26.00001907348633 L 6.336030651254987e-07 -7.622927660122514e-05 L 185.1498107910156 -7.622927660122514e-05 L 185.1498107910156 11.85651874542236 L 171.0774078369141 25.99913787841797 L 175.9553833007812 25.99801826477051 L 175.9553833007812 26.00001907348633 Z" stroke="none" fill="#30a1cf"/>
    </g>
  </g>
</svg>
