<svg id="Sound_control" data-name="Sound control" xmlns="http://www.w3.org/2000/svg" width="23.338" height="20.117" viewBox="0 0 23.338 20.117">
  <path id="Path_448" data-name="Path 448" d="M12.962,1.207l-7.24,7.24H.5v5.485H5.722l7.236,7.393Z" transform="translate(-0.5 -1.207)" fill="#fff"/>
  <g id="Group_80" data-name="Group 80" transform="translate(13.936 0.927)">
    <g id="Group_77" data-name="Group 77" transform="translate(4.231 0)">
      <path id="Path_449" data-name="Path 449" d="M194.286,28.572a.564.564,0,0,1-.344-1.012,9.748,9.748,0,0,0,0-15.479.564.564,0,1,1,.687-.9,10.877,10.877,0,0,1,0,17.27.562.562,0,0,1-.343.116Z" transform="translate(-193.721 -11.07)" fill="#fff"/>
    </g>
    <g id="Group_78" data-name="Group 78" transform="translate(2.135 2.737)">
      <path id="Path_450" data-name="Path 450" d="M171.99,52.2a.564.564,0,0,1-.344-1.012,6.3,6.3,0,0,0,0-10.005.564.564,0,0,1,.687-.9,7.427,7.427,0,0,1,0,11.8.562.562,0,0,1-.343.116Z" transform="translate(-171.425 -40.175)" fill="#fff"/>
    </g>
    <g id="Group_79" data-name="Group 79" transform="translate(0 5.524)">
      <path id="Path_451" data-name="Path 451" d="M149.284,76.273a.564.564,0,0,1-.344-1.012,2.79,2.79,0,0,0,0-4.431.564.564,0,1,1,.687-.9,3.918,3.918,0,0,1,0,6.222.563.563,0,0,1-.343.116Z" transform="translate(-148.719 -69.819)" fill="#fff"/>
    </g>
  </g>
</svg>
